<svg width="2539" height="763" xmlns="http://www.w3.org/2000/svg" xmlns:xlink="http://www.w3.org/1999/xlink" xml:space="preserve" overflow="hidden"><g transform="translate(6 3)"><path d="M0.499836 33.0004C0.499836 15.0509 15.0508 0.499836 33.0004 0.499836L353.999 0.499836C371.949 0.499836 386.5 15.0509 386.5 33.0004L386.5 162.999C386.5 180.949 371.949 195.5 353.999 195.5L33.0004 195.5C15.0508 195.5 0.499836 180.949 0.499836 162.999Z" stroke="#042433" stroke-width="6.875" stroke-miterlimit="8" fill="#156082" fill-rule="evenodd"/><text fill="#FFFFFF" font-family="Aptos,Aptos_MSFontService,sans-serif" font-weight="700" font-size="83" transform="matrix(1 0 0 1 68.0017 124)">Rank 0</text><path d="M498.5 33.0004C498.5 15.0508 513.051 0.499836 531 0.499836L1444 0.499836C1461.95 0.499836 1476.5 15.0508 1476.5 33.0004L1476.5 163C1476.5 180.949 1461.95 195.5 1444 195.5L531 195.5C513.051 195.5 498.5 180.949 498.5 163Z" stroke="#000000" stroke-width="6.875" stroke-miterlimit="8" fill-rule="evenodd"/><text fill="#FFFFFF" font-family="Aptos,Aptos_MSFontService,sans-serif" font-weight="700" font-size="83" transform="matrix(1 0 0 1 647.577 124)">Initialize Group (0)</text><path d="M0.499836 593.001C0.499836 575.051 15.0508 560.5 33.0004 560.5L353.999 560.5C371.949 560.5 386.5 575.051 386.5 593.001L386.5 723C386.5 740.949 371.949 755.5 353.999 755.5L33.0004 755.5C15.0508 755.5 0.499836 740.949 0.499836 723Z" stroke="#042433" stroke-width="6.875" stroke-miterlimit="8" fill="#156082" fill-rule="evenodd"/><text fill="#FFFFFF" font-family="Aptos,Aptos_MSFontService,sans-serif" font-weight="700" font-size="83" transform="matrix(1 0 0 1 68.0017 684)">Rank 1</text><path d="M498.5 593.001C498.5 575.051 513.051 560.5 531 560.5L1444 560.5C1461.95 560.5 1476.5 575.051 1476.5 593.001L1476.5 723C1476.5 740.95 1461.95 755.501 1444 755.501L531 755.501C513.051 755.501 498.5 740.95 498.5 723Z" stroke="#000000" stroke-width="6.875" stroke-miterlimit="8" fill-rule="evenodd"/><text fill="#FFFFFF" font-family="Aptos,Aptos_MSFontService,sans-serif" font-weight="700" font-size="83" transform="matrix(1 0 0 1 647.577 684)">Initialize Group (1)</text><path d="M0.499836 313.001C0.499836 295.051 15.0508 280.5 33.0003 280.5L2085 280.5C2102.95 280.5 2117.5 295.051 2117.5 313.001L2117.5 442.999C2117.5 460.949 2102.95 475.5 2085 475.5L33.0003 475.5C15.0508 475.5 0.499836 460.949 0.499836 442.999Z" stroke="#622C0F" stroke-width="6.875" stroke-miterlimit="8" fill="#E97132" fill-rule="evenodd"/><text fill="#FFFFFF" font-family="Aptos,Aptos_MSFontService,sans-serif" font-weight="700" font-size="83" transform="matrix(1 0 0 1 722.782 404)">Rendezvous Store</text><path d="M386.5 95.0627 474.907 95.063 474.907 101.938 386.5 101.938ZM470.323 84.7504 497.823 98.5005 470.323 112.25Z" fill="#156082"/><path d="M1.11438e-05-3.4375 88.4067-3.43721 88.4067 3.43779-1.11438e-05 3.4375ZM83.8234-13.7497 111.323 0.000360892 83.8233 13.7503Z" fill="#156082" transform="matrix(1 0 0 -1 386.5 658.5)"/><path d="M0.178317-3.43287 4.31655-3.21792 8.65692-2.55555 16.8207-0.124109 24.4922 3.67245 31.3643 8.59587 37.206 14.4549 41.712 20.9976 43.4592 24.6185 44.7382 28.293 45.5408 32.0722 45.8009 35.6706 46.044 39.0335 45.978 38.5672 46.6866 41.9039 46.5706 41.488 47.7137 44.772 47.5631 44.4082 49.1097 47.6133 48.8448 47.1574 53.0241 53.2256 52.6274 52.7483 58.048 58.1852 57.154 57.5391 64.6237 61.283 61.5431 67.4292 53.574 63.435 47.5388 57.3818 43.0327 50.8392 41.2856 47.2183 40.0065 43.5437 39.2039 39.7646 38.9438 36.1662 38.7007 32.8033 38.7668 33.2695 38.0581 29.9329 38.1742 30.3488 37.0311 27.0647 37.1816 27.4286 35.6351 24.2235 35.9 24.6794 31.7207 18.6111 32.1174 19.0884 26.6967 13.6515 27.129 14.0189 20.7153 9.42383 21.1925 9.71032 14.0339 6.1676 14.5774 6.38122 6.92223 4.10124 7.38486 4.20492 3.44866 3.60423 3.78892 3.63895-0.178317 3.43287ZM63.2395 49.8632 84.7448 71.8367 54.2628 75.8568Z" transform="matrix(1.83697e-16 1 1 -1.83697e-16 987.5 195.5)"/><path d="M984.067 560.066 984.282 555.928 984.945 551.588 987.376 543.424 991.173 535.752 996.096 528.88 1001.96 523.038 1008.5 518.532 1012.12 516.785 1015.79 515.506 1019.57 514.704 1023.17 514.444 1026.53 514.2 1026.07 514.266 1029.4 513.558 1028.99 513.674 1032.27 512.531 1031.91 512.681 1035.11 511.135 1034.66 511.4 1040.73 507.22 1040.25 507.617 1045.69 502.196 1045.04 503.09 1048.78 495.621 1054.93 498.701 1050.94 506.671 1044.88 512.706 1038.34 517.212 1034.72 518.959 1031.04 520.238 1027.26 521.041 1023.67 521.301 1020.3 521.544 1020.77 521.478 1017.43 522.186 1017.85 522.07 1014.57 523.213 1014.93 523.063 1011.72 524.609 1012.18 524.344 1006.11 528.524 1006.59 528.127 1001.15 533.548 1001.52 533.115 996.924 539.529 997.211 539.052 993.668 546.211 993.882 545.667 991.602 553.322 991.705 552.86 991.105 556.796 991.139 556.456 990.933 560.423ZM1037.36 497.005 1059.34 475.5 1063.36 505.982Z"/><text font-family="Aptos,Aptos_MSFontService,sans-serif" font-weight="700" font-size="83" transform="matrix(1 0 0 1 890.749 264)">0</text><text font-family="Aptos,Aptos_MSFontService,sans-serif" font-weight="700" font-size="83" transform="matrix(1 0 0 1 890.749 539)">1</text><path d="M1587.5 33.0007C1587.5 15.0509 1602.05 0.499836 1620 0.499836L2085 0.499836C2102.95 0.499836 2117.5 15.0509 2117.5 33.0007L2117.5 162.999C2117.5 180.949 2102.95 195.5 2085 195.5L1620 195.5C1602.05 195.5 1587.5 180.949 1587.5 162.999Z" stroke="#410C3B" stroke-width="6.875" stroke-miterlimit="8" fill="#A02B93" fill-rule="evenodd"/><text fill="#FFFFFF" font-family="Aptos,Aptos_MSFontService,sans-serif" font-weight="700" font-size="83" transform="matrix(1 0 0 1 1635.39 124)">1 Presents?</text><path d="M1587.5 593.001C1587.5 575.051 1602.05 560.5 1620 560.5L2085 560.5C2102.95 560.5 2117.5 575.051 2117.5 593.001L2117.5 722.999C2117.5 740.949 2102.95 755.5 2085 755.5L1620 755.5C1602.05 755.5 1587.5 740.949 1587.5 722.999Z" stroke="#410C3B" stroke-width="6.875" stroke-miterlimit="8" fill="#A02B93" fill-rule="evenodd"/><text fill="#FFFFFF" font-family="Aptos,Aptos_MSFontService,sans-serif" font-weight="700" font-size="83" transform="matrix(1 0 0 1 1635.39 684)">0 Presents?</text><path d="M1056.2 279.289 1056.98 276.587 1059.44 273.717 1062.78 271.355 1066.99 269.209 1072.1 267.164 1078.11 265.179 1085.03 263.238 1092.83 261.336 1101.48 259.472 1110.95 257.648 1121.21 255.866 1132.22 254.129 1143.96 252.44 1156.38 250.802 1169.45 249.22 1183.13 247.696 1197.39 246.235 1212.2 244.841 1227.51 243.516 1243.3 242.266 1259.51 241.093 1276.14 240.002 1310.42 238.081 1345.87 236.533 1382.19 235.388 1419.09 234.679 1456.26 234.435 1493.41 234.192 1493.37 234.193 1530.23 233.484 1530.19 233.485 1566.47 232.342 1566.42 232.344 1601.83 230.797 1601.79 230.799 1636.03 228.88 1636 228.882 1652.59 227.793 1652.57 227.794 1668.77 226.624 1668.74 226.625 1684.5 225.377 1684.48 225.379 1699.77 224.057 1699.74 224.059 1714.52 222.667 1714.49 222.67 1728.73 221.212 1728.7 221.215 1742.35 219.695 1742.32 219.699 1755.35 218.121 1755.31 218.125 1767.7 216.493 1767.66 216.498 1779.35 214.815 1779.3 214.822 1790.27 213.093 1790.21 213.101 1800.41 211.329 1800.35 211.34 1809.76 209.529 1809.68 209.544 1818.25 207.699 1818.16 207.719 1825.85 205.842 1825.26 206.045 1831.5 203.25 1834.31 209.523 1827.79 212.447 1819.74 214.41 1811.09 216.273 1801.62 218.097 1791.36 219.879 1780.35 221.617 1768.61 223.306 1756.19 224.944 1743.13 226.526 1729.44 228.049 1715.18 229.51 1700.37 230.905 1685.06 232.229 1669.27 233.48 1653.06 234.652 1636.43 235.744 1602.15 237.665 1566.7 239.213 1530.38 240.358 1493.48 241.067 1456.31 241.31 1419.16 241.553 1419.2 241.553 1382.34 242.261 1382.38 242.26 1346.11 243.403 1346.15 243.402 1310.74 244.948 1310.78 244.946 1276.54 246.865 1276.57 246.863 1259.98 247.953 1260 247.951 1243.8 249.122 1243.83 249.12 1228.07 250.369 1228.09 250.367 1212.8 251.689 1212.83 251.687 1198.05 253.079 1198.08 253.076 1183.85 254.534 1183.88 254.531 1170.22 256.051 1170.26 256.047 1157.22 257.625 1157.26 257.621 1144.88 259.253 1144.92 259.248 1133.22 260.931 1133.27 260.924 1122.31 262.653 1122.36 262.644 1112.16 264.417 1112.22 264.405 1102.82 266.216 1102.89 266.201 1094.32 268.047 1094.41 268.026 1086.72 269.903 1086.83 269.873 1080.04 271.777 1080.19 271.732 1074.35 273.66 1074.55 273.586 1069.69 275.533 1069.97 275.404 1066.13 277.366 1066.55 277.111 1063.76 279.085 1064.38 278.517 1062.68 280.499 1063.38 279.216 1062.8 281.202ZM1822.34 196.464 1853.07 195.5 1835.4 220.663Z" fill="#E97132"/><path d="M0.956441-3.30176 3.65864-2.519 6.52863-0.0550893 8.89055 3.28462 11.0365 7.48894 13.0812 12.5954 15.0665 18.6132 17.0074 25.5317 18.9094 33.3293 20.773 41.9787 22.5971 51.4491 24.3793 61.7082 26.1166 72.7221 27.8058 84.4564 29.4434 96.8761 31.0258 109.946 32.5494 123.63 34.0103 137.893 35.4049 152.699 36.7293 168.012 37.9797 183.796 39.1523 200.015 40.2436 216.638 42.1647 250.92 43.7131 286.368 44.8575 322.689 45.567 359.591 45.8102 396.763 46.0533 433.913 46.0528 433.87 46.7614 470.729 46.7603 470.687 47.9035 506.966 47.9019 506.924 49.4484 542.33 49.4463 542.288 51.3653 576.532 51.3633 576.499 52.4528 593.095 52.4512 593.072 53.6221 609.268 53.6203 609.244 54.8688 625.004 54.8668 624.979 56.189 640.267 56.1866 640.24 57.5787 655.019 57.5759 654.992 59.0339 669.226 59.0307 669.195 60.5508 682.848 60.5469 682.815 62.1252 695.851 62.1206 695.815 63.7532 708.196 63.7476 708.156 65.4306 719.847 65.4237 719.801 67.1532 730.766 67.1445 730.713 68.9167 740.915 68.9054 740.853 70.7164 750.255 70.7013 750.181 72.5472 758.749 72.5264 758.658 74.4034 766.353 74.2007 765.762 76.9963 771.999 70.7226 774.811 67.7986 768.287 65.8363 760.242 63.9726 751.593 62.1485 742.122 60.3664 731.863 58.629 720.849 56.9398 709.115 55.3022 696.695 53.7198 683.625 52.1963 669.941 50.7353 655.678 49.3407 640.872 48.0163 625.559 46.7659 609.775 45.5933 593.556 44.502 576.933 42.5809 542.652 41.0325 507.203 39.8881 470.883 39.1786 433.98 38.9354 396.808 38.6923 359.658 38.6928 359.702 37.9842 322.842 37.9853 322.884 36.8422 286.606 36.8437 286.647 35.2972 251.241 35.2993 251.283 33.3803 217.039 33.3823 217.072 32.2928 200.477 32.2944 200.499 31.1235 184.304 31.1253 184.327 29.8768 168.568 29.8788 168.592 28.5566 153.305 28.559 153.331 27.1669 138.552 27.1697 138.58 25.7117 124.346 25.7149 124.376 24.1949 110.723 24.1987 110.756 22.6204 97.7206 22.625 97.7568 20.9924 85.3754 20.998 85.4158 19.315 73.7246 19.3219 73.7705 17.5924 62.8058 17.6011 62.8586 15.8289 52.6568 15.8402 52.7186 14.0292 43.316 14.0443 43.3899 12.1984 34.8228 12.2192 34.9133 10.3422 27.2181 10.3721 27.3321 8.46798 20.545 8.51324 20.6934 6.58585 14.8508 6.65914 15.0518 4.71236 10.19 4.84178 10.4749 2.87948 6.63032 3.13467 7.05245 1.16073 4.26134 1.72813 4.88466-0.253569 3.18336 1.02914 3.87694-0.956441 3.30176ZM83.7818 762.841 84.7456 793.571 59.5827 775.904Z" fill="#E97132" transform="matrix(1.83697e-16 1 1 -1.83697e-16 1059.5 475.5)"/><path d="M1.11438e-05-3.4375 88.4067-3.43721 88.4067 3.43779-1.11438e-05 3.4375ZM83.8234-13.7497 111.323 0.000360892 83.8233 13.7503Z" transform="matrix(1 0 0 -1 1476.5 98.5005)"/><path d="M1476.5 655.063 1564.91 655.063 1564.91 661.938 1476.5 661.938ZM1560.32 644.75 1587.82 658.5 1560.32 672.25Z"/><path d="M2117.5 95.0627 2232.64 95.063 2232.64 101.938 2117.5 101.938ZM2228.06 84.7505 2255.56 98.5005 2228.06 112.25Z" fill="#A02B93"/><path d="M2117.5 655.063 2232.64 655.063 2232.64 661.938 2117.5 661.938ZM2228.06 644.75 2255.56 658.5 2228.06 672.25Z" fill="#A02B93"/><text fill="#A02B93" font-family="Aptos,Aptos_MSFontService,sans-serif" font-style="italic" font-weight="700" font-size="83" transform="matrix(1 0 0 1 2150.3 221)">continue</text><text fill="#A02B93" font-family="Aptos,Aptos_MSFontService,sans-serif" font-style="italic" font-weight="700" font-size="83" transform="matrix(1 0 0 1 2150.3 599)">continue</text><text fill="#AEAEAE" font-family="Aptos,Aptos_MSFontService,sans-serif" font-style="italic" font-weight="700" font-size="64" transform="matrix(1 0 0 1 33 258)">© 2026, </text><text fill="#AEAEAE" font-family="Aptos,Aptos_MSFontService,sans-serif" font-style="italic" font-weight="700" font-size="64" transform="matrix(1 0 0 1 263.885 258)">EastLakeFish</text></g></svg>