<svg width="2017" height="917" xmlns="http://www.w3.org/2000/svg" xmlns:xlink="http://www.w3.org/1999/xlink" xml:space="preserve" overflow="hidden"><g transform="translate(3 3)"><rect x="0" y="391" width="2009" height="395" fill="#FBE3D6"/><rect x="0" y="0" width="2009" height="395" fill="#DCEAF7"/><path d="M0.499836 33.0004C0.499836 15.0509 15.0508 0.499836 33.0004 0.499836L353.999 0.499836C371.949 0.499836 386.5 15.0509 386.5 33.0004L386.5 162.999C386.5 180.949 371.949 195.5 353.999 195.5L33.0004 195.5C15.0508 195.5 0.499836 180.949 0.499836 162.999Z" stroke="#156082" stroke-width="6.875" stroke-miterlimit="8" fill="#FFFFFF" fill-rule="evenodd"/><text font-family="Aptos,Aptos_MSFontService,sans-serif" font-weight="700" font-size="83" transform="matrix(1 0 0 1 68.0017 124)">Rank 0</text><path d="M0.499836 620.001C0.499836 602.051 15.0508 587.5 33.0004 587.5L353.999 587.5C371.949 587.5 386.5 602.051 386.5 620.001L386.5 750C386.5 767.949 371.949 782.5 353.999 782.5L33.0004 782.5C15.0508 782.5 0.499836 767.949 0.499836 750Z" stroke="#156082" stroke-width="6.875" stroke-miterlimit="8" fill="#FFFFFF" fill-rule="evenodd"/><text font-family="Aptos,Aptos_MSFontService,sans-serif" font-weight="700" font-size="83" transform="matrix(1 0 0 1 68.0017 711)">Rank 1</text><path d="M548.5 33.0007C548.5 15.051 563.051 0.499836 581.001 0.499836L1019 0.499836C1036.95 0.499836 1051.5 15.051 1051.5 33.0007L1051.5 162.999C1051.5 180.949 1036.95 195.5 1019 195.5L581.001 195.5C563.051 195.5 548.5 180.949 548.5 162.999Z" stroke="#000000" stroke-width="6.875" stroke-miterlimit="8" fill="#FFFFFF" fill-rule="evenodd"/><text font-family="Aptos,Aptos_MSFontService,sans-serif" font-weight="700" font-size="83" transform="matrix(1 0 0 1 628.162 124)">Model (0)</text><path d="M548.5 620.001C548.5 602.051 563.051 587.5 581.001 587.5L1019 587.5C1036.95 587.5 1051.5 602.051 1051.5 620.001L1051.5 750C1051.5 767.949 1036.95 782.5 1019 782.5L581.001 782.5C563.051 782.5 548.5 767.949 548.5 750Z" stroke="#000000" stroke-width="6.875" stroke-miterlimit="8" fill="#FFFFFF" fill-rule="evenodd"/><text font-family="Aptos,Aptos_MSFontService,sans-serif" font-weight="700" font-size="83" transform="matrix(1 0 0 1 628.162 711)">Model (1)</text><path d="M7.66569e-06-3.4375 138.917-3.43719 138.917 3.43781-7.66569e-06 3.4375ZM134.334-13.7497 161.834 0.000360892 134.334 13.7503Z" fill="#156082" transform="matrix(1 0 0 -1 386.5 98.5005)"/><path d="M7.66569e-06-3.4375 138.917-3.43719 138.917 3.43781-7.66569e-06 3.4375ZM134.334-13.7497 161.834 0.000360892 134.334 13.7503Z" fill="#156082" transform="matrix(1 0 0 -1 386.5 685.5)"/><path d="M548 254.725C548 231.681 566.681 213 589.725 213L1009.28 213C1032.32 213 1051 231.681 1051 254.725L1051 290.275C1051 313.319 1032.32 332 1009.28 332L589.725 332C566.681 332 548 313.319 548 290.275Z" fill="#4EA72E" fill-rule="evenodd"/><text fill="#FFFFFF" font-family="Aptos,Aptos_MSFontService,sans-serif" font-weight="700" font-size="83" transform="matrix(1 0 0 1 716.105 299)">DDP</text><path d="M548 490.725C548 467.681 566.681 449 589.725 449L1009.28 449C1032.32 449 1051 467.681 1051 490.725L1051 526.275C1051 549.319 1032.32 568 1009.28 568L589.725 568C566.681 568 548 549.319 548 526.275Z" fill="#4EA72E" fill-rule="evenodd"/><text fill="#FFFFFF" font-family="Aptos,Aptos_MSFontService,sans-serif" font-weight="700" font-size="83" transform="matrix(1 0 0 1 716.105 535)">DDP</text><path d="M802.938 355.417 802.938 426.319 796.063 426.319 796.063 355.417ZM785.75 360 799.5 332.5 813.25 360ZM813.25 421.735 799.5 449.235 785.75 421.735Z" fill="#A02B93"/><text fill="#A02B93" font-family="Aptos,Aptos_MSFontService,sans-serif" font-weight="700" font-size="83" transform="matrix(1 0 0 1 401.485 421)">Allreduce</text><path d="M1233.5 131.001C1233.5 113.051 1248.05 98.5002 1266 98.5002L1703 98.5002C1720.95 98.5002 1735.5 113.051 1735.5 131.001L1735.5 261C1735.5 278.949 1720.95 293.5 1703 293.5L1266 293.5C1248.05 293.5 1233.5 278.949 1233.5 261Z" stroke="#E97132" stroke-width="6.875" stroke-miterlimit="8" fill="#FFFFFF" fill-rule="evenodd"/><text font-family="Aptos,Aptos_MSFontService,sans-serif" font-weight="700" font-size="83" transform="matrix(1 0 0 1 1300.57 222)">Trainer (0)</text><path d="M1233.5 521.167C1233.5 503.126 1248.13 488.5 1266.17 488.5L1702.83 488.5C1720.87 488.5 1735.5 503.126 1735.5 521.167L1735.5 651.833C1735.5 669.874 1720.87 684.5 1702.83 684.5L1266.17 684.5C1248.13 684.5 1233.5 669.874 1233.5 651.833Z" stroke="#E97132" stroke-width="6.875" stroke-miterlimit="8" fill="#FFFFFF" fill-rule="evenodd"/><text font-family="Aptos,Aptos_MSFontService,sans-serif" font-weight="700" font-size="83" transform="matrix(1 0 0 1 1300.57 612)">Trainer (1)</text><path d="M1231.8 199.182 1070.07 112.367 1073.32 106.31 1235.05 193.125ZM1069.23 123.621 1051.5 98.5002 1082.23 99.3912Z" fill="#E97132"/><path d="M1.64021-3.02095 163.426 84.8202 160.146 90.8621-1.64021 3.02095ZM164.319 73.5704 181.926 98.7759 151.197 97.738Z" fill="#E97132" transform="matrix(-1 0 0 1 1233.43 586.5)"/><text fill="#E97132" font-family="Aptos,Aptos_MSFontService,sans-serif" font-weight="700" font-size="83" transform="matrix(1 0 0 1 1187.22 421)">Params &amp; Grads</text><text fill="#4E95D9" font-family="Aptos,Aptos_MSFontService,sans-serif" font-weight="700" font-size="83" transform="matrix(-1.83697e-16 -1 1 -1.83697e-16 1938.34 361)">CUDA 0</text><text fill="#F2AA84" font-family="Aptos,Aptos_MSFontService,sans-serif" font-weight="700" font-size="83" transform="matrix(-1.83697e-16 -1 1 -1.83697e-16 1938.34 733)">CUDA 1</text><text fill="#AEAEAE" font-family="Aptos,Aptos_MSFontService,sans-serif" font-style="italic" font-weight="700" font-size="64" transform="matrix(1 0 0 1 1355.86 857)">© 2026, </text><text fill="#AEAEAE" font-family="Aptos,Aptos_MSFontService,sans-serif" font-style="italic" font-weight="700" font-size="64" transform="matrix(1 0 0 1 1586.75 857)">EastLakeFish</text></g></svg>