<svg width="1186" height="1140" xmlns="http://www.w3.org/2000/svg" xmlns:xlink="http://www.w3.org/1999/xlink" xml:space="preserve" overflow="hidden"><g transform="translate(-1263 -825)"><path d="M2449 1470 2440.59 1504.99C2408.94 1613.87 2345.5 1709.21 2260.98 1780.28L2235.1 1799 2210.26 1797.98C2161.65 1793.86 2114.32 1783.45 2069.29 1767.44L2055 1761.67 2081.34 1723.41C2095.68 1698.8 2108.22 1673.01 2118.78 1646.23L2136.8 1590.65 2156.22 1589.57C2261.53 1577.8 2359.13 1537.33 2442.46 1475.38Z" fill-rule="evenodd"/><path d="M1706.65 1151.19 1698.4 1205.2C1696.47 1224.25 1695.47 1243.57 1695.47 1263.13 1695.47 1536.89 1889.77 1765.29 2148.06 1818.12L2200.5 1826.12 2193.87 1832.14C2095.89 1912.95 1970.28 1961.5 1833.32 1961.5 1520.27 1961.5 1266.5 1707.87 1266.5 1395 1266.5 1355.89 1270.47 1317.71 1278.02 1280.83L1281.43 1267.56 1325.13 1248.6C1364.66 1232.77 1409.2 1217.42 1457.37 1203.33 1492.46 1193.07 1528.35 1183.84 1564.04 1175.88 1613.61 1164.83 1660.53 1156.72 1703.16 1151.52ZM1833.32 828.5C1852.88 828.5 1872.22 829.491 1891.27 831.425L1895.11 832.01 1861.49 862.55C1797.38 926.623 1748.56 1005.97 1720.96 1094.67L1714.36 1120.33 1649.59 1127.82C1625.17 1131.39 1599.84 1135.84 1573.81 1141.17 1526.34 1150.9 1478.46 1163.21 1432.19 1177.61 1381.91 1193.24 1335.72 1210.6 1294.96 1228.79L1290.89 1230.78 1291.98 1226.54C1363.75 995.936 1578.97 828.5 1833.32 828.5Z" stroke="#000000" stroke-width="6.875" stroke-miterlimit="8" fill-rule="evenodd"/><path d="M1569 960.5C1569 943.103 1582.88 929 1600 929 1617.12 929 1631 943.103 1631 960.5 1631 977.897 1617.12 992 1600 992 1582.88 992 1569 977.897 1569 960.5Z" fill="#FFFFFF" fill-rule="evenodd"/><path d="M395 0 386.565 34.9854C354.843 143.872 291.236 239.215 206.501 310.281L180.553 329 155.655 327.981C106.918 323.856 59.4689 313.454 14.3245 297.442L0 291.673 26.4053 253.406C40.783 228.799 53.3546 203.012 63.9391 176.226L82.0062 120.654 101.481 119.574C207.058 107.805 304.904 67.3339 388.443 5.38204Z" fill-rule="evenodd" transform="matrix(-1 0 0 1 2092 1187)"/></g></svg>