<svg width="1355" height="1355" xmlns="http://www.w3.org/2000/svg" xmlns:xlink="http://www.w3.org/1999/xlink" xml:space="preserve" overflow="hidden"><g transform="translate(-1412 3)"><path d="M1415.5 241.994C1415.5 108.621 1523.62 0.499836 1656.99 0.499836L2522 0.499836C2655.38 0.499836 2763.5 108.621 2763.5 241.994L2763.5 1107.01C2763.5 1240.38 2655.38 1348.5 2522 1348.5L1656.99 1348.5C1523.62 1348.5 1415.5 1240.38 1415.5 1107.01Z" stroke="#FFFFFF" stroke-width="6.875" stroke-miterlimit="8" fill="#FFFFFF" fill-rule="evenodd"/><path d="M2680 749 2671.59 783.985C2639.94 892.872 2576.5 988.215 2491.98 1059.28L2466.1 1078 2441.26 1076.98C2392.65 1072.86 2345.32 1062.45 2300.29 1046.44L2286 1040.67 2312.34 1002.41C2326.68 977.799 2339.22 952.012 2349.78 925.226L2367.8 869.654 2387.22 868.574C2492.53 856.805 2590.13 816.334 2673.46 754.382Z" fill-rule="evenodd"/><path d="M1937.65 431.195 1929.4 485.205C1927.47 504.249 1926.47 523.572 1926.47 543.126 1926.47 816.887 2120.77 1045.29 2379.06 1098.12L2431.5 1106.12 2424.87 1112.14C2326.89 1192.95 2201.28 1241.5 2064.32 1241.5 1751.27 1241.5 1497.5 987.87 1497.5 675 1497.5 635.892 1501.47 597.708 1509.02 560.831L1512.43 547.56 1556.13 528.604C1595.66 512.769 1640.2 497.416 1688.37 483.334 1723.46 473.073 1759.35 463.837 1795.04 455.882 1844.61 444.831 1891.53 436.719 1934.16 431.519ZM2064.32 108.5C2083.88 108.5 2103.22 109.491 2122.27 111.425L2126.11 112.011 2092.49 142.55C2028.38 206.623 1979.56 285.972 1951.96 374.666L1945.36 400.327 1880.59 407.818C1856.17 411.393 1830.84 415.838 1804.81 421.173 1757.34 430.898 1709.46 443.215 1663.19 457.607 1612.91 473.242 1566.72 490.602 1525.96 508.793L1521.89 510.777 1522.98 506.54C1594.75 275.936 1809.97 108.5 2064.32 108.5Z" stroke="#000000" stroke-width="6.875" stroke-miterlimit="8" fill-rule="evenodd"/><path d="M1800 240C1800 222.879 1813.88 209 1831 209 1848.12 209 1862 222.879 1862 240 1862 257.121 1848.12 271 1831 271 1813.88 271 1800 257.121 1800 240Z" fill="#FFFFFF" fill-rule="evenodd"/><path d="M394 0 385.587 34.9854C353.944 143.872 290.499 239.215 205.979 310.281L180.095 329 155.261 327.981C106.647 323.856 59.3184 313.454 14.2883 297.442L0 291.673 26.3385 253.406C40.6797 228.799 53.2195 203.012 63.7772 176.226L81.7986 120.654 101.225 119.574C206.533 107.805 304.132 67.3339 387.46 5.38204Z" fill-rule="evenodd" transform="matrix(-1 0 0 1 2322 466)"/></g></svg>