<svg width="2980" height="1313" xmlns="http://www.w3.org/2000/svg" xmlns:xlink="http://www.w3.org/1999/xlink" xml:space="preserve" overflow="hidden"><g transform="translate(8 3)"><path d="M467.5 333.167C467.5 319.544 478.544 308.5 492.167 308.5L1806.83 308.5C1820.46 308.5 1831.5 319.544 1831.5 333.167L1831.5 431.833C1831.5 445.456 1820.46 456.5 1806.83 456.5L492.167 456.5C478.544 456.5 467.5 445.456 467.5 431.833Z" stroke="#042433" stroke-width="6.875" stroke-miterlimit="8" fill="#156082" fill-rule="evenodd"/><text fill="#FFFFFF" font-family="Aptos,Aptos_MSFontService,sans-serif" font-weight="700" font-size="83" transform="matrix(1 0 0 1 772.644 409)">Worker 1: Processor</text><path d="M467.5 519.334C467.5 505.619 478.618 494.5 492.334 494.5L1806.67 494.5C1820.38 494.5 1831.5 505.619 1831.5 519.334L1831.5 618.666C1831.5 632.381 1820.38 643.5 1806.67 643.5L492.334 643.5C478.618 643.5 467.5 632.381 467.5 618.666Z" stroke="#042433" stroke-width="6.875" stroke-miterlimit="8" fill="#156082" fill-rule="evenodd"/><text fill="#FFFFFF" font-family="Aptos,Aptos_MSFontService,sans-serif" font-weight="700" font-size="83" transform="matrix(1 0 0 1 772.644 595)">Worker 2: Processor</text><path d="M467.5 878.167C467.5 864.544 478.544 853.5 492.167 853.5L1806.83 853.5C1820.46 853.5 1831.5 864.544 1831.5 878.167L1831.5 976.833C1831.5 990.456 1820.46 1001.5 1806.83 1001.5L492.167 1001.5C478.544 1001.5 467.5 990.456 467.5 976.833Z" stroke="#042433" stroke-width="6.875" stroke-miterlimit="8" fill="#156082" fill-rule="evenodd"/><text fill="#FFFFFF" font-family="Aptos,Aptos_MSFontService,sans-serif" font-weight="700" font-size="83" transform="matrix(1 0 0 1 770.925 953)">Worker </text><text fill="#FFFFFF" font-family="Aptos,Aptos_MSFontService,sans-serif" font-style="italic" font-weight="700" font-size="83" transform="matrix(1 0 0 1 1058.48 953)">n</text><text fill="#FFFFFF" font-family="Aptos,Aptos_MSFontService,sans-serif" font-weight="700" font-size="83" transform="matrix(1 0 0 1 1106.04 953)">: Processor</text><text font-family="Aptos,Aptos_MSFontService,sans-serif" font-weight="700" font-size="83" transform="matrix(1 0 0 1 1066.81 773)">··· ···</text><rect x="0.499836" y="308.5" width="333" height="693" stroke="#622C0F" stroke-width="6.875" stroke-miterlimit="8" fill="#E97132"/><text fill="#FFFFFF" font-family="Aptos,Aptos_MSFontService,sans-serif" font-weight="700" font-size="83" transform="matrix(1 0 0 1 68.1424 631)">Input</text><text fill="#FFFFFF" font-family="Aptos,Aptos_MSFontService,sans-serif" font-weight="700" font-size="83" transform="matrix(1 0 0 1 42.3612 730)">Queue</text><path d="M0.135105-3.43484 6.52763-3.1834 12.9936-2.43621 19.3485-1.23263 25.546 0.394538 31.5402 2.41359 37.2852 4.79397 42.7352 7.50639 47.8442 10.5231 52.5661 13.818 56.8536 17.3675 60.6582 21.1509 63.9278 25.1504 66.6045 29.3509 68.6202 33.7361 69.895 38.2814 70.3079 42.607 70.6917 46.6267 70.5795 46.0251 71.6981 50.0135 71.5116 49.506 73.3161 53.4315 73.0917 53.0199 75.533 56.851 75.2953 56.5226 78.3245 60.2279 78.087 59.9661 81.655 63.5142 81.4232 63.3038 85.4811 66.6633 85.2562 66.4921 89.755 69.6314 89.5356 69.4904 94.4263 72.3781 94.2102 72.2607 99.4438 74.8654 99.228 74.7672 104.756 77.0574 104.236 76.8891 111.967 78.7296 110.375 85.4177 102.377 83.5137 96.4868 81.0732 91.0368 78.3607 85.9277 75.3441 81.2059 72.0492 76.9184 68.4996 73.1138 64.7163 69.8442 60.7168 67.1675 56.5163 65.1517 52.1311 63.877 47.5859 63.4641 43.2603 63.0803 39.2405 63.1924 39.8421 62.0739 35.8538 62.2603 36.3612 60.4559 32.4357 60.6803 32.8473 58.239 29.0162 58.4766 29.3446 55.4475 25.6393 55.685 25.901 52.117 22.3529 52.3487 22.5633 48.2908 19.2039 48.5158 19.3751 44.017 16.2357 44.2364 16.3768 39.3456 13.489 39.5618 13.6064 34.3282 11.0017 34.544 11.1 29.0164 8.80967 29.2349 8.89164 23.4624 6.94726 23.6868 7.01441 17.7183 5.44738 17.9516 5.50002 11.8361 4.34178 12.0812 4.3791 5.86779 3.6611 6.12729 3.68117-0.135105 3.43484ZM108.927 67.7546 133.772 85.8671 104.375 94.8752Z" fill="#E97132" transform="matrix(1 0 0 -1 333.5 655.367)"/><path d="M333.716 651.069 337.059 651.28 340.675 651.954 347.465 654.442 354.087 658.417 360.423 663.69 366.461 670.138 372.184 677.655 377.565 686.144 382.57 695.511 387.158 705.661 391.288 716.498 394.914 727.929 397.99 739.855 400.468 752.182 402.299 764.813 403.435 777.651 403.822 790.494 404.206 803.236 404.194 803.037 405.313 815.679 405.29 815.489 407.095 827.932 407.063 827.748 409.504 839.893 409.463 839.712 412.492 851.457 412.44 851.276 416.008 862.524 415.943 862.339 420.001 872.988 419.921 872.796 424.42 882.748 424.32 882.544 429.211 891.698 429.082 891.477 434.316 899.734 434.147 899.492 439.675 906.752 439.116 906.174 448.8 914.092 444.448 919.414 434.45 911.239 428.588 903.54 423.207 895.05 418.202 885.683 413.614 875.534 409.484 864.696 405.858 853.266 402.782 841.339 400.304 829.012 398.473 816.381 397.337 803.543 396.95 790.701 396.566 777.958 396.578 778.158 395.46 765.515 395.482 765.705 393.677 753.262 393.709 753.446 391.268 741.301 391.309 741.482 388.28 729.737 388.332 729.918 384.764 718.67 384.829 718.855 380.771 708.206 380.851 708.398 376.352 698.446 376.452 698.65 371.561 689.496 371.69 689.717 366.456 681.46 366.625 681.702 361.097 674.442 361.323 674.709 355.551 668.546 355.861 668.838 349.892 663.871 350.322 664.176 344.206 660.504 344.793 660.785 338.58 658.509 339.132 658.66 336.004 658.076 336.418 658.128 333.284 657.931ZM448.458 902.376 467.272 926.694 436.529 927.154Z" fill="#E97132"/><text fill="#E97132" font-family="Aptos,Aptos_MSFontService,sans-serif" font-weight="700" font-size="83" transform="matrix(1 0 0 1 434.591 792)">B</text><text fill="#E97132" font-family="Aptos,Aptos_MSFontService,sans-serif" font-weight="700" font-size="83" transform="matrix(1 0 0 1 484.779 792)">ytes</text><rect x="1965.5" y="308.5" width="333" height="693" stroke="#1C440D" stroke-width="6.875" stroke-miterlimit="8" fill="#4EA72E"/><text fill="#FFFFFF" font-family="Aptos,Aptos_MSFontService,sans-serif" font-weight="700" font-size="83" transform="matrix(1 0 0 1 1999.6 631)">Output</text><text fill="#FFFFFF" font-family="Aptos,Aptos_MSFontService,sans-serif" font-weight="700" font-size="83" transform="matrix(1 0 0 1 2007.05 730)">Queue</text><path d="M1831.72 379.069 1835.06 379.28 1838.68 379.954 1845.46 382.442 1852.09 386.417 1858.42 391.69 1864.46 398.138 1870.18 405.655 1875.57 414.144 1880.57 423.511 1885.16 433.661 1889.29 444.498 1892.91 455.929 1895.99 467.855 1898.47 480.182 1900.3 492.813 1901.44 505.651 1901.82 518.493 1902.21 531.236 1902.19 531.036 1903.31 543.679 1903.29 543.489 1905.09 555.932 1905.06 555.748 1907.5 567.893 1907.46 567.712 1910.49 579.457 1910.44 579.276 1914.01 590.523 1913.94 590.339 1918 600.988 1917.92 600.796 1922.42 610.747 1922.32 610.544 1927.21 619.698 1927.08 619.477 1932.32 627.734 1932.15 627.492 1937.67 634.752 1937.12 634.173 1946.8 642.092 1942.45 647.414 1932.45 639.239 1926.59 631.539 1921.21 623.05 1916.2 613.683 1911.61 603.533 1907.48 592.696 1903.86 581.265 1900.78 569.339 1898.3 557.011 1896.47 544.381 1895.34 531.543 1894.95 518.7 1894.57 505.958 1894.58 506.157 1893.46 493.515 1893.48 493.705 1891.68 481.262 1891.71 481.446 1889.27 469.301 1889.31 469.482 1886.28 457.737 1886.33 457.918 1882.76 446.67 1882.83 446.855 1878.77 436.206 1878.85 436.398 1874.35 426.446 1874.45 426.65 1869.56 417.496 1869.69 417.717 1864.46 409.46 1864.62 409.702 1859.1 402.442 1859.32 402.709 1853.55 396.546 1853.86 396.838 1847.89 391.871 1848.32 392.176 1842.21 388.504 1842.79 388.785 1836.58 386.509 1837.13 386.66 1834 386.077 1834.42 386.128 1831.28 385.931ZM1946.46 630.376 1965.27 654.694 1934.53 655.154Z" fill="#196B24"/><path d="M1831.64 566.065 1838.03 566.317 1844.49 567.064 1850.85 568.268 1857.05 569.895 1863.04 571.914 1868.79 574.294 1874.24 577.007 1879.34 580.023 1884.07 583.318 1888.35 586.868 1892.16 590.651 1895.43 594.651 1898.1 598.851 1900.12 603.236 1901.4 607.781 1901.81 612.107 1902.19 616.127 1902.08 615.525 1903.2 619.514 1903.01 619.006 1904.82 622.932 1904.59 622.52 1907.03 626.351 1906.8 626.023 1909.82 629.728 1909.59 629.466 1913.16 633.014 1912.92 632.804 1916.98 636.163 1916.76 635.992 1921.26 639.132 1921.04 638.99 1925.93 641.878 1925.71 641.761 1930.94 644.366 1930.73 644.267 1936.26 646.558 1935.74 646.389 1943.47 648.23 1941.88 654.918 1933.88 653.014 1927.99 650.573 1922.54 647.861 1917.43 644.844 1912.71 641.549 1908.42 638 1904.61 634.216 1901.34 630.217 1898.67 626.016 1896.65 621.631 1895.38 617.086 1894.96 612.76 1894.58 608.741 1894.69 609.342 1893.57 605.354 1893.76 605.861 1891.96 601.936 1892.18 602.347 1889.74 598.516 1889.98 598.845 1886.95 595.139 1887.18 595.401 1883.62 591.853 1883.85 592.063 1879.79 588.704 1880.02 588.875 1875.52 585.736 1875.74 585.877 1870.85 582.989 1871.06 583.107 1865.83 580.502 1866.04 580.6 1860.52 578.31 1860.73 578.392 1854.96 576.447 1855.19 576.515 1849.22 574.948 1849.45 575 1843.34 573.842 1843.58 573.879 1837.37 573.161 1837.63 573.181 1831.36 572.935ZM1940.43 637.255 1965.27 655.367 1935.88 664.375Z" fill="#196B24"/><path d="M0.215945-3.43071 3.55899-3.22028 7.17509-2.54571 13.965-0.0584871 20.5871 3.91728 26.9227 9.19026 32.961 15.6376 38.6842 23.1545 44.0652 31.6439 49.0696 41.0107 53.6581 51.1605 57.7879 61.9983 61.414 73.4286 64.4899 85.3554 66.9679 97.6825 68.7995 110.313 69.9353 123.151 70.3221 135.994 70.7058 148.736 70.694 148.537 71.8126 161.179 71.7904 160.989 73.5948 173.432 73.563 173.248 76.0042 185.393 75.9627 185.212 78.9919 196.957 78.9398 196.776 82.5079 208.024 82.4435 207.839 86.5014 218.488 86.4215 218.296 90.9203 228.248 90.8199 228.044 95.7106 237.198 95.5821 236.977 100.816 245.234 100.647 244.992 106.175 252.252 105.616 251.674 115.3 259.592 110.948 264.914 100.95 256.739 95.0879 249.04 89.7069 240.55 84.7025 231.183 80.114 221.034 75.9843 210.196 72.3582 198.765 69.2824 186.839 66.8044 174.512 64.9728 161.881 63.837 149.043 63.4502 136.201 63.0664 123.458 63.0783 123.658 61.9597 111.015 61.9819 111.205 60.1775 98.7616 60.2093 98.9458 57.768 86.8014 57.8095 86.9823 54.7803 75.2366 54.8324 75.4177 51.2643 64.1704 51.3287 64.355 47.2708 53.7058 47.3507 53.8978 42.8519 43.9464 42.9523 44.1502 38.0615 34.9962 38.1901 35.2167 32.9564 26.9598 33.1248 27.2018 27.5972 19.9418 27.8232 20.2092 22.0507 14.0456 22.3607 14.338 16.3922 9.37057 16.8218 9.67557 10.7064 6.00401 11.2934 6.28463 5.08002 4.00859 5.632 4.16003 2.50387 3.57649 2.91831 3.62799-0.215945 3.43071ZM114.958 247.876 133.772 272.194 103.029 272.654Z" fill="#196B24" transform="matrix(1 0 0 -1 1831.5 926.694)"/><path d="M0.215944-3.43071 3.55899-3.22028 7.17508-2.54571 13.965-0.0584917 20.5871 3.91727 26.9227 9.19024 32.961 15.6376 38.6842 23.1545 44.0652 31.6438 49.0696 41.0107 53.6581 51.1604 57.7879 61.9982 61.414 73.4285 64.4899 85.3553 66.9679 97.6824 68.7995 110.313 69.9353 123.151 70.3221 135.993 70.7058 148.736 70.694 148.536 71.8126 161.179 71.7904 160.989 73.5948 173.432 73.563 173.248 76.0042 185.392 75.9627 185.211 78.9919 196.957 78.9398 196.776 82.5079 208.023 82.4435 207.839 86.5014 218.488 86.4215 218.296 90.9203 228.247 90.8199 228.044 95.7106 237.198 95.582 236.977 100.816 245.234 100.647 244.992 106.175 252.252 105.616 251.673 115.3 259.592 110.948 264.914 100.95 256.739 95.0879 249.039 89.7069 240.55 84.7025 231.183 80.114 221.033 75.9843 210.195 72.3582 198.765 69.2824 186.838 66.8044 174.511 64.9728 161.881 63.837 149.043 63.4502 136.2 63.0664 123.458 63.0783 123.657 61.9597 111.015 61.9819 111.205 60.1775 98.7615 60.2093 98.9456 57.768 86.8012 57.8095 86.9822 54.7803 75.2365 54.8324 75.4176 51.2643 64.1703 51.3287 64.3549 47.2708 53.7057 47.3507 53.8977 42.8519 43.9463 42.9523 44.1501 38.0615 34.9962 38.1901 35.2166 32.9564 26.9598 33.1248 27.2018 27.5972 19.9417 27.8232 20.2092 22.0507 14.0456 22.3607 14.338 16.3922 9.37056 16.8218 9.67556 10.7064 6.00401 11.2934 6.28462 5.08003 4.00859 5.632 4.16003 2.50387 3.57649 2.91831 3.62799-0.215944 3.43071ZM114.958 247.876 133.772 272.194 103.029 272.654Z" fill="#E97132" transform="matrix(1 0 0 -1 333.5 654.694)"/><text fill="#196B24" font-family="Aptos,Aptos_MSFontService,sans-serif" font-weight="700" font-size="83" transform="matrix(1 0 0 1 1655.56 792)">B</text><text fill="#196B24" font-family="Aptos,Aptos_MSFontService,sans-serif" font-weight="700" font-size="83" transform="matrix(1 0 0 1 1705.75 792)">ytes</text><path d="M2419.5 362.762C2419.5 332.794 2443.79 308.5 2473.76 308.5L2903.24 308.5C2933.21 308.5 2957.5 332.794 2957.5 362.762L2957.5 947.238C2957.5 977.206 2933.21 1001.5 2903.24 1001.5L2473.76 1001.5C2443.79 1001.5 2419.5 977.206 2419.5 947.238Z" stroke="#410C3B" stroke-width="6.875" stroke-miterlimit="8" fill="#A02B93" fill-rule="evenodd"/><text fill="#FFFFFF" font-family="Aptos,Aptos_MSFontService,sans-serif" font-weight="700" font-size="83" transform="matrix(1 0 0 1 2511.54 681)">Collector</text><path d="M2298.5 651.062 2396.98 651.063 2396.98 657.938 2298.5 657.938ZM2392.4 640.75 2419.9 654.5 2392.4 668.25Z" fill="#196B24"/><path d="M0.499836 25.1676C0.499836 11.544 11.5439 0.499836 25.1674 0.499836L2932.83 0.499836C2946.46 0.499836 2957.5 11.544 2957.5 25.1676L2957.5 123.832C2957.5 137.456 2946.46 148.5 2932.83 148.5L25.1674 148.5C11.5439 148.5 0.499836 137.456 0.499836 123.832Z" stroke="#000000" stroke-width="6.875" stroke-miterlimit="8" fill-rule="evenodd"/><text fill="#FFFFFF" font-family="Aptos,Aptos_MSFontService,sans-serif" font-weight="700" font-size="83" transform="matrix(1 0 0 1 1249.64 101)">Main Thread</text><path d="M1482.58 148.935 1482.29 151.214 1481.31 153.788 1479.81 156.179 1477.85 158.41 1475.49 160.524 1472.73 162.559 1469.56 164.537 1466.01 166.476 1462.06 168.384 1457.72 170.268 1452.99 172.132 1447.87 173.977 1442.38 175.805 1436.51 177.617 1430.27 179.413 1423.67 181.194 1409.43 184.698 1393.81 188.133 1376.88 191.49 1358.7 194.765 1339.33 197.949 1318.82 201.037 1297.24 204.021 1274.64 206.895 1251.08 209.65 1226.62 212.281 1201.32 214.779 1175.24 217.138 1148.45 219.35 1120.99 221.408 1092.94 223.305 1064.34 225.033 1035.27 226.586 1005.77 227.955 945.762 230.114 884.789 231.453 823.36 231.912 761.955 232.371 762.005 232.37 701.081 233.707 701.129 233.706 641.166 235.863 641.202 235.862 611.73 237.23 611.754 237.229 582.703 238.78 582.727 238.778 554.157 240.505 554.181 240.503 526.151 242.399 526.176 242.397 498.746 244.453 498.772 244.451 472.003 246.661 472.03 246.659 445.981 249.015 446.009 249.012 420.741 251.508 420.77 251.505 396.343 254.132 396.374 254.129 372.847 256.88 372.882 256.876 350.315 259.745 350.353 259.74 328.807 262.719 328.848 262.713 308.383 265.794 308.429 265.787 289.105 268.964 289.157 268.955 271.034 272.219 271.093 272.208 254.231 275.553 254.3 275.538 238.759 278.956 238.842 278.937 224.682 282.421 224.756 282.402 218.212 284.166 218.268 284.151 212.093 285.929 212.156 285.91 206.355 287.701 206.426 287.678 201.009 289.481 201.09 289.453 196.062 291.267 196.156 291.232 191.526 293.055 192.252 292.663 186.95 296.416 182.978 290.804 188.62 286.811 193.682 284.817 198.797 282.971 204.291 281.143 210.159 279.331 216.394 277.536 223.002 275.754 237.241 272.251 252.858 268.816 269.785 265.458 287.964 262.184 307.337 259 327.845 255.912 349.43 252.928 372.032 250.054 395.592 247.298 420.05 244.668 445.347 242.169 471.424 239.81 498.219 237.598 525.675 235.54 553.73 233.643 582.325 231.915 611.4 230.363 640.901 228.993 700.906 226.834 761.879 225.496 823.308 225.037 884.713 224.578 884.663 224.579 945.587 223.241 945.539 223.243 1005.5 221.085 1005.47 221.087 1034.94 219.719 1034.91 219.72 1063.96 218.169 1063.94 218.17 1092.51 216.444 1092.49 216.445 1120.52 214.55 1120.49 214.552 1147.92 212.496 1147.9 212.498 1174.67 210.288 1174.64 210.29 1200.69 207.933 1200.66 207.936 1225.93 205.441 1225.9 205.444 1250.33 202.816 1250.29 202.82 1273.82 200.068 1273.79 200.072 1296.35 197.203 1296.32 197.208 1317.86 194.229 1317.82 194.235 1338.28 191.154 1338.24 191.161 1357.56 187.985 1357.51 187.994 1375.63 184.729 1375.57 184.741 1392.44 181.396 1392.37 181.41 1407.91 177.992 1407.83 178.012 1421.99 174.528 1421.91 174.547 1428.46 172.782 1428.4 172.798 1434.58 171.02 1434.51 171.038 1440.31 169.248 1440.24 169.27 1445.66 167.468 1445.58 167.496 1450.61 165.682 1450.51 165.717 1455.14 163.893 1455.03 163.938 1459.26 162.105 1459.13 162.163 1462.94 160.322 1462.79 160.399 1466.18 158.55 1466 158.655 1468.97 156.8 1468.75 156.945 1471.28 155.084 1471.03 155.291 1473.11 153.426 1472.82 153.724 1474.45 151.856 1474.13 152.289 1475.31 150.417 1475 151.027 1475.72 149.153 1475.52 149.94 1475.76 148.065ZM197.36 301.121 167.5 308.449 179.554 280.164Z"/><text font-family="Aptos,Aptos_MSFontService,sans-serif" font-weight="700" font-size="83" transform="matrix(1 0 0 1 1471.64 252)">Assign</text><text font-family="Aptos,Aptos_MSFontService,sans-serif" font-weight="700" font-size="83" transform="matrix(1 0 0 1 1737.25 252)">Tasks</text><text font-family="Aptos,Aptos_MSFontService,sans-serif" font-weight="700" font-size="83" transform="matrix(1 0 0 1 1962.72 252)">&amp;</text><text font-family="Aptos,Aptos_MSFontService,sans-serif" font-weight="700" font-size="83" transform="matrix(1 0 0 1 2034.91 252)">Stop</text><text font-family="Aptos,Aptos_MSFontService,sans-serif" font-weight="700" font-size="83" transform="matrix(1 0 0 1 2225.28 252)">Fla</text><text font-family="Aptos,Aptos_MSFontService,sans-serif" font-weight="700" font-size="83" transform="matrix(1 0 0 1 2339.29 252)">g</text><path d="M0.499836 1161.33C0.499836 1147.62 11.6177 1136.5 25.3323 1136.5L2932.67 1136.5C2946.38 1136.5 2957.5 1147.62 2957.5 1161.33L2957.5 1260.67C2957.5 1274.38 2946.38 1285.5 2932.67 1285.5L25.3323 1285.5C11.6177 1285.5 0.499836 1274.38 0.499836 1260.67Z" stroke="#000000" stroke-width="6.875" stroke-miterlimit="8" fill="#FFFFFF" fill-rule="evenodd"/><text font-family="Aptos,Aptos_MSFontService,sans-serif" font-weight="700" font-size="83" transform="matrix(1 0 0 1 1394.71 1237)">Disk</text><path d="M0.257124-3.42787 3.68629-3.17065 7.32622-2.36147 10.895-1.05482 14.382 0.714276 17.7851 2.91493 21.1058 5.52149 24.3467 8.51275 27.5427 11.9057 33.6021 19.6158 39.3783 28.6565 44.8107 38.8697 49.8649 50.1431 54.5008 62.3632 58.6743 75.4153 62.3395 89.1833 65.4488 103.551 67.9537 118.4 69.805 133.614 70.9529 149.075 71.3446 164.576 71.7342 179.993 71.7259 179.825 72.8616 195.121 72.8458 194.961 74.6778 210.016 74.6551 209.859 77.1337 224.553 77.1038 224.397 80.1792 238.608 80.1413 238.451 83.7638 252.059 83.7162 251.896 87.8361 264.781 87.7759 264.608 92.3434 276.649 92.2661 276.461 97.2315 287.537 97.1298 287.329 102.443 297.319 102.305 297.082 107.917 305.866 107.723 305.593 113.584 313.05 112.732 312.277 117.589 315.38 113.888 321.174 108.539 317.757 102.214 309.709 96.4379 300.668 91.0056 290.455 85.9513 279.182 81.3155 266.962 77.142 253.91 73.4769 240.141 70.3676 225.774 67.8627 210.925 66.0114 195.711 64.8635 180.25 64.4718 164.749 64.0822 149.332 64.0905 149.5 62.9549 134.204 62.9706 134.364 61.1386 119.309 61.1613 119.466 58.6827 104.772 58.7126 104.927 55.6372 90.7165 55.6751 90.8737 52.0525 77.2658 52.1001 77.4284 47.9802 64.5441 48.0404 64.7164 43.4728 52.6763 43.5502 52.8633 38.5847 41.788 38.6865 41.9959 33.3729 32.006 33.511 32.2425 27.899 23.4587 28.093 23.732 22.2323 16.2748 22.4328 16.5076 19.4247 13.3142 19.5954 13.4832 16.5438 10.6667 16.7528 10.8446 13.6639 8.42003 13.9198 8.60259 10.7998 6.58502 11.1112 6.76403 7.96633 5.16856 8.3397 5.33094 5.1762 4.17265 5.61211 4.3003 2.43618 3.59428 2.92502 3.66656-0.257124 3.42787ZM118.351 304.021 135.816 329.325 105.094 328.114Z" transform="matrix(-1.83697e-16 -1 -1 1.83697e-16 1478.82 1137.32)"/><path d="M2691.63 1001.97 2691.35 1004 2690.39 1006.32 2688.95 1008.44 2687.1 1010.38 2684.89 1012.2 2682.33 1013.94 2679.4 1015.62 2676.11 1017.27 2672.46 1018.9 2668.43 1020.51 2659.37 1023.65 2648.89 1026.74 2637.05 1029.78 2623.91 1032.75 2609.5 1035.67 2593.89 1038.52 2577.12 1041.3 2559.26 1044.01 2540.34 1046.63 2520.44 1049.16 2499.59 1051.6 2477.86 1053.94 2455.3 1056.18 2431.97 1058.3 2407.92 1060.3 2383.21 1062.18 2357.89 1063.93 2332.01 1065.54 2305.64 1067.01 2278.83 1068.32 2251.62 1069.49 2196.28 1071.32 2140.04 1072.46 2083.39 1072.85 2026.75 1073.24 2026.8 1073.23 1970.61 1074.37 1970.66 1074.37 1915.35 1076.2 1915.39 1076.2 1888.2 1077.36 1888.23 1077.36 1861.43 1078.68 1861.46 1078.68 1835.11 1080.14 1835.13 1080.14 1809.28 1081.75 1809.3 1081.75 1784 1083.49 1784.03 1083.49 1759.34 1085.37 1759.36 1085.37 1735.34 1087.37 1735.36 1087.37 1712.06 1089.49 1712.09 1089.48 1689.56 1091.71 1689.59 1091.71 1667.89 1094.05 1667.92 1094.04 1647.11 1096.48 1647.14 1096.48 1627.27 1099 1627.31 1099 1608.43 1101.62 1608.48 1101.61 1590.65 1104.31 1590.7 1104.3 1573.99 1107.07 1574.04 1107.06 1558.49 1109.9 1558.56 1109.89 1544.22 1112.79 1544.3 1112.78 1531.24 1115.73 1531.33 1115.71 1519.6 1118.72 1519.72 1118.69 1509.38 1121.74 1509.87 1121.55 1498.48 1126.92 1495.55 1120.7 1507.18 1115.22 1517.84 1112.07 1529.67 1109.04 1542.82 1106.06 1557.22 1103.14 1572.84 1100.29 1589.6 1097.51 1607.47 1094.81 1626.38 1092.19 1646.29 1089.65 1667.14 1087.21 1688.86 1084.87 1711.42 1082.64 1734.75 1080.52 1758.8 1078.52 1783.52 1076.64 1808.84 1074.89 1834.71 1073.28 1861.08 1071.81 1887.9 1070.49 1915.11 1069.33 1970.45 1067.5 2026.68 1066.36 2083.34 1065.97 2139.97 1065.58 2139.93 1065.58 2196.11 1064.45 2196.07 1064.45 2251.37 1062.62 2251.34 1062.62 2278.52 1061.46 2278.5 1061.46 2305.29 1060.14 2305.27 1060.14 2331.62 1058.67 2331.6 1058.68 2357.45 1057.07 2357.43 1057.07 2382.72 1055.32 2382.7 1055.32 2407.39 1053.45 2407.36 1053.45 2431.39 1051.45 2431.36 1051.45 2454.67 1049.33 2454.64 1049.33 2477.17 1047.1 2477.14 1047.11 2498.84 1044.77 2498.81 1044.77 2519.62 1042.34 2519.58 1042.34 2539.46 1039.81 2539.42 1039.82 2558.29 1037.2 2558.25 1037.21 2576.07 1034.51 2576.02 1034.52 2592.74 1031.74 2592.68 1031.75 2608.24 1028.91 2608.17 1028.93 2622.5 1026.02 2622.43 1026.04 2635.49 1023.08 2635.39 1023.11 2647.12 1020.1 2647 1020.13 2657.35 1017.08 2657.2 1017.13 2666.1 1014.04 2665.95 1014.09 2669.85 1012.54 2669.73 1012.59 2673.24 1011.03 2673.1 1011.09 2676.23 1009.52 2676.05 1009.62 2678.78 1008.04 2678.57 1008.18 2680.9 1006.6 2680.65 1006.79 2682.57 1005.2 2682.26 1005.49 2683.77 1003.9 2683.43 1004.33 2684.51 1002.74 2684.17 1003.37 2684.83 1001.78 2684.6 1002.62 2684.82 1001.03ZM1508.82 1132.21 1478.5 1137.32 1492.61 1110Z"/><text font-family="Aptos,Aptos_MSFontService,sans-serif" font-weight="700" font-size="83" transform="matrix(1 0 0 1 794.279 1103)">Raw Data</text><text font-family="Aptos,Aptos_MSFontService,sans-serif" font-weight="700" font-size="83" transform="matrix(1 0 0 1 2660.05 1109)">Shard</text><text font-family="Aptos,Aptos_MSFontService,sans-serif" font-weight="700" font-size="83" transform="matrix(1 0 0 1 2879.71 1109)">s</text><text fill="#AEAEAE" font-family="Aptos,Aptos_MSFontService,sans-serif" font-style="italic" font-weight="700" font-size="64" transform="matrix(1 0 0 1 33 1231)">© 2026, </text><text fill="#AEAEAE" font-family="Aptos,Aptos_MSFontService,sans-serif" font-style="italic" font-weight="700" font-size="64" transform="matrix(1 0 0 1 263.885 1231)">EastLakeFish</text></g></svg>